<svg width="40" height="40" viewBox="0 0 40 40" fill="none" xmlns="http://www.w3.org/2000/svg" aria-hidden="true">
  <g clip-path="url(#tq_symbol_clip)">
    <path d="M16 24L10.9996 30.6668H20.6668L16 24Z" fill="#FFA300"/>
    <path d="M26.4 0H13.6C6.0888 0 0 6.0888 0 13.6V26.4C0 33.9108 6.0888 40 13.6 40H26.4C33.9112 40 40 33.9108 40 26.4V13.6C40 6.0888 33.9112 0 26.4 0ZM30.6668 26C30.6668 28.5772 28.5776 30.6668 26 30.6668H14C11.4228 30.6668 9.3332 28.5776 9.3332 26V14C9.3332 11.4228 11.4224 9.3332 14 9.3332H26C28.5772 9.3332 30.6668 11.4224 30.6668 14V26Z" fill="#FF560B"/>
    <path d="M16 24.0004H26.7172C28.0224 24.0004 29.2456 24.6372 29.994 25.7064L39.2656 38.9512C39.5748 39.3932 39.2588 40 38.7196 40H28.5884C27.7184 40 26.9028 39.5756 26.4036 38.8624L16 24.0004Z" fill="#FFE133"/>
  </g>
  <defs>
    <clipPath id="tq_symbol_clip">
      <rect width="40" height="40" fill="white"/>
    </clipPath>
  </defs>
</svg>
