<svg
  width="80"
  height="87"
  viewBox="0 0 80 87"
  fill="none"
  xmlns="http://www.w3.org/2000/svg"
>
  <g clipPath="url(#clip0_23275_2767)">
    <path
      d="M2.84 86.2056C1.96533 85.6772 1.27167 84.9632 0.764 84.0647C0.254 83.1666 0 82.1945 0 81.1442C0 80.0938 0.254 79.1218 0.764 78.2237C1.27167 77.3276 1.96533 76.6135 2.84 76.0828C3.717 75.5544 4.675 75.2881 5.712 75.2881C6.48667 75.2881 7.22033 75.4403 7.914 75.7425C8.49033 75.9945 9.01067 76.3274 9.47533 76.741C9.63167 76.8798 9.642 77.1231 9.508 77.2834L8.53267 78.4499C8.40267 78.6055 8.172 78.6433 8.00833 78.5231C7.76367 78.3435 7.46633 78.1912 7.118 78.0647C6.62933 77.8894 6.15567 77.8007 5.697 77.8007C5.11667 77.8007 4.564 77.9486 4.03933 78.2468C3.51667 78.5446 3.09633 78.9505 2.78033 79.4641C2.46467 79.9797 2.30667 80.5399 2.30667 81.1442C2.30667 81.7485 2.46467 82.3107 2.78033 82.8243C3.096 83.3379 3.51633 83.7478 4.03933 84.05C4.56433 84.3521 5.11667 84.5044 5.697 84.5044C6.15567 84.5044 6.62933 84.4157 7.118 84.238C7.46633 84.1129 7.76333 83.958 8.00833 83.7736C8.172 83.6505 8.405 83.6873 8.53633 83.8442L9.50767 85.005C9.64167 85.1653 9.63167 85.4085 9.47533 85.5477C9.01033 85.9613 8.49033 86.2939 7.914 86.5459C7.22067 86.8501 6.48667 87.0003 5.712 87.0003C4.675 87.0003 3.717 86.7363 2.84 86.2056Z"
      fill="#302C2B"
    />
    <path
      d="M22.898 87.0006H20.6743C20.5103 87.0006 20.3627 86.9026 20.3003 86.7523L19.218 84.1413H14.0847L13.0023 86.7523C12.94 86.9026 12.7923 87.0006 12.6283 87.0006H10.4023L15.2293 75.5353C15.292 75.3861 15.4393 75.2891 15.6023 75.2891H17.7C17.863 75.2891 18.0103 75.3861 18.073 75.5353L22.898 87.0006ZM18.0783 81.5149L16.66 78.1008L15.224 81.5149H18.0783Z"
      fill="#302C2B"
    />
    <path
      d="M37.7533 87.0006H35.7563C35.533 87.0006 35.352 86.8212 35.352 86.6004V78.4549L31.9966 84.4047H29.6413L26.2576 78.4549V86.6004C26.2576 86.8216 26.0766 87.0006 25.8533 87.0006H23.8696V75.2891H27.111C27.258 75.2891 27.3933 75.368 27.4646 75.4955L30.8113 81.4848L34.128 75.4969C34.199 75.3687 34.3346 75.2891 34.4823 75.2891H37.753L37.7533 87.0006Z"
      fill="#302C2B"
    />
    <path
      d="M47.1 75.8365C47.7296 76.2013 48.2286 76.6998 48.599 77.3276C48.991 77.9961 49.1756 78.7283 49.15 79.527C49.1296 80.1604 48.9556 80.7905 48.6436 81.344C48.269 82.0085 47.7553 82.5349 47.1 82.9213C46.4703 83.2904 45.7816 83.4758 45.0343 83.4758H42.178V86.5994C42.178 86.8206 41.997 86.9996 41.7736 86.9996H39.8226V75.6883C39.8226 75.4671 40.0036 75.2881 40.227 75.2881H45.0346C45.782 75.2881 46.4706 75.4694 47.1003 75.8362L47.1 75.8365ZM45.9453 80.8347C46.2003 80.6794 46.403 80.4743 46.5553 80.2176C46.7056 79.9587 46.7796 79.6826 46.7796 79.3824C46.7796 79.0846 46.7056 78.8086 46.5553 78.5559C46.4026 78.3033 46.2003 78.1029 45.9453 77.954C45.6903 77.8051 45.4136 77.7294 45.111 77.7294H42.1783V81.0659H45.111C45.414 81.0659 45.6906 80.9903 45.9453 80.835V80.8347Z"
      fill="#302C2B"
    />
    <path
      d="M53.1846 75.2891V86.6004C53.1846 86.8216 53.0036 87.0006 52.7803 87.0006H50.8116V75.6893C50.8116 75.4681 50.9926 75.2891 51.216 75.2891H53.1846Z"
      fill="#302C2B"
    />
    <path
      d="M66.8474 87.0006H63.5224L57.4697 78.2865V86.6004C57.4697 86.8216 57.2887 87.0006 57.0654 87.0006H55.0684V75.6893C55.0684 75.4681 55.2494 75.2891 55.4727 75.2891H58.2497L64.4594 83.9881V75.6893C64.4594 75.4681 64.6404 75.2891 64.8637 75.2891H66.8474V87.0006Z"
      fill="#302C2B"
    />
    <path
      d="M79.9577 82.0165C79.8444 82.9859 79.5241 83.8492 78.9941 84.6068C78.4641 85.3643 77.7867 85.9526 76.9664 86.3719C76.1461 86.7908 75.2464 87.0003 74.2677 87.0003C73.1437 87.0003 72.1354 86.7399 71.2377 86.2193C70.3404 85.7006 69.6417 84.9919 69.1417 84.0988C68.6417 83.2057 68.3917 82.2173 68.3917 81.1361C68.3917 80.055 68.6437 79.0705 69.1504 78.1818C69.6547 77.2931 70.3534 76.5884 71.2444 76.0677C72.1374 75.547 73.1441 75.2891 74.2677 75.2891C75.4707 75.2891 76.5007 75.5557 77.3574 76.0911C78.0814 76.5435 78.6481 77.0789 79.0591 77.6976C79.1824 77.8833 79.1074 78.1376 78.9124 78.2471L77.5267 79.0247C77.3514 79.1231 77.1391 79.0682 77.0127 78.9126C76.7511 78.5897 76.4187 78.3083 76.0177 78.0677C75.5027 77.7609 74.9151 77.6063 74.2507 77.6063C73.6097 77.6063 73.0157 77.7629 72.4687 78.0761C71.9237 78.3893 71.4901 78.8169 71.1697 79.3563C70.8471 79.896 70.6867 80.4907 70.6867 81.1361C70.6867 81.7943 70.8471 82.3909 71.1697 82.933C71.4904 83.4727 71.9241 83.9001 72.4687 84.2133C73.0157 84.5265 73.6097 84.6831 74.2507 84.6831C74.5671 84.6831 74.9407 84.6131 75.3681 84.4779C75.7974 84.3424 76.2034 84.1162 76.5924 83.8027C76.9791 83.4915 77.2504 83.0809 77.4021 82.5753H74.5581V80.7416C74.5581 80.5248 74.7354 80.3491 74.9544 80.3491H79.9724C80.0131 80.6011 80.0087 81.1575 79.9574 82.0168L79.9577 82.0165Z"
      fill="#302C2B"
    />
    <path
      d="M11.6323 61.7101H8.55133V70.7079C8.55133 70.9274 8.37133 71.1051 8.14933 71.1051H6.144V61.7101H3.402C3.18 61.7101 3 61.5324 3 61.3129V59.3936H11.2303C11.4523 59.3936 11.6323 59.5712 11.6323 59.7907V61.7101Z"
      fill="#302C2B"
    />
    <path
      d="M23.1614 71.1051H21.1864C20.9644 71.1051 20.7844 70.9274 20.7844 70.7079V66.2535H15.532V70.7079C15.532 70.9274 15.352 71.1051 15.13 71.1051H13.155V59.3936H15.13C15.352 59.3936 15.532 59.5712 15.532 59.7907V63.937H20.7844V59.7907C20.7844 59.5712 20.9644 59.3936 21.1864 59.3936H23.1614V71.1051Z"
      fill="#302C2B"
    />
    <path
      d="M37.0983 71.1051H34.8653C34.7023 71.1051 34.5553 71.0077 34.4933 70.8588L33.4083 68.2468H28.2643L27.1793 70.8588C27.1173 71.0077 26.9707 71.1051 26.8073 71.1051H24.5743L29.4113 59.6378C29.4737 59.4899 29.62 59.3936 29.7823 59.3936H31.89C32.0523 59.3936 32.1987 59.4899 32.261 59.6378L37.0983 71.1051ZM32.2667 65.6197L30.8453 62.2047L29.4067 65.6197H32.2667Z"
      fill="#302C2B"
    />
    <path
      d="M49.959 71.1051H46.6286L40.5616 62.391V70.7079C40.5616 70.9274 40.3816 71.1051 40.1596 71.1051H38.1543V59.7907C38.1543 59.5712 38.3343 59.3936 38.5563 59.3936H41.1356C41.2663 59.3936 41.3886 59.4561 41.464 59.5615L47.567 68.0925V59.7907C47.567 59.5712 47.747 59.3936 47.969 59.3936H49.9593V71.1051H49.959Z"
      fill="#302C2B"
    />
    <path
      d="M58.1579 64.4703L62.8733 71.1054H59.8913L56.5026 66.29L54.4403 68.6059V70.7089C54.4403 70.9281 54.2606 71.1054 54.0389 71.1054H52.0686V59.4237H54.0389C54.2606 59.4237 54.4403 59.6014 54.4403 59.8202V65.088L59.5323 59.3936H62.8106L58.1579 64.47V64.4703Z"
      fill="#302C2B"
    />
    <path
      d="M74.1281 71.7023L73.2657 70.7487C72.6707 71.176 72.1074 71.4805 71.5754 71.6655C71.1541 71.8121 70.6547 71.9011 70.0754 71.9319C68.8141 71.9988 67.5334 71.7374 66.4281 71.1328C65.3171 70.5251 64.4397 69.6812 63.7937 68.6008C63.0804 67.4038 62.7794 66.0895 62.8987 64.654C62.9697 63.7964 63.2231 62.9535 63.6341 62.1952C64.2627 61.0351 65.1391 60.126 66.2661 59.4648C67.2984 58.8601 68.4131 58.5576 69.6031 58.5576C70.7931 58.5576 71.9081 58.8601 72.9424 59.4648C73.9771 60.0721 74.8004 60.8879 75.4124 61.9151C76.0267 62.9448 76.3327 64.0584 76.3327 65.2583C76.2987 65.9757 76.1847 66.5901 75.9927 67.1037C75.7984 67.6173 75.4974 68.2196 75.0894 68.9133L76.0671 69.9442C76.2241 70.1099 76.2144 70.3705 76.0451 70.5241L74.7157 71.7311C74.5461 71.8853 74.2814 71.8723 74.1281 71.7026V71.7023ZM73.3364 66.7647C73.4651 66.4984 73.5524 66.2775 73.6011 66.0975C73.6471 65.9198 73.6884 65.6391 73.7224 65.2576C73.7224 64.5185 73.5331 63.8345 73.1541 63.2058C72.7727 62.577 72.2651 62.0801 71.6287 61.7177C70.9924 61.353 70.3171 61.1706 69.6031 61.1706C68.8891 61.1706 68.2187 61.353 67.5874 61.7177C66.9797 62.0677 66.4877 62.5432 66.1114 63.1418C65.7457 63.7231 65.5341 64.4 65.5071 65.084C65.4754 65.8904 65.6637 66.6299 66.0721 67.3021C66.4534 67.9238 66.9584 68.4181 67.5877 68.7828C68.2191 69.1452 68.8921 69.3275 69.6034 69.3275C70.0477 69.3035 70.3977 69.2603 70.6551 69.1981C70.9124 69.1331 71.1747 69.0227 71.4444 68.8598L70.0944 67.3968C69.9401 67.2295 69.9527 66.9702 70.1227 66.8186L71.4801 65.6073C71.6521 65.4537 71.9184 65.4701 72.0701 65.6434L73.2317 66.9735L73.3361 66.7647H73.3364Z"
      fill="#302C2B"
    />
    <path
      d="M34.6667 32.123L27.9994 41.0462H40.8891L34.6667 32.123Z"
      fill="#FFA300"
    />
    <path
      d="M48.5334 0H31.4667C21.4517 0 13.3334 8.14956 13.3334 18.2031V35.3354C13.3334 45.3886 21.4517 53.5385 31.4667 53.5385H48.5334C58.548 53.5385 66.6667 45.3886 66.6667 35.3354V18.2031C66.6667 8.14956 58.548 0 48.5334 0ZM54.2224 34.8C54.2224 38.2495 51.4367 41.0463 48 41.0463H32C28.5637 41.0463 25.7777 38.2499 25.7777 34.8V18.7385C25.7777 15.2889 28.5634 12.4922 32 12.4922H48C51.4364 12.4922 54.2224 15.2886 54.2224 18.7385V34.8Z"
      fill="#FF560B"
    />
    <path
      d="M34.6666 32.123H48.9566C50.697 32.123 52.328 32.9753 53.326 34.4068L65.688 52.1344C66.1003 52.7257 65.679 53.5384 64.9596 53.5384H51.4513C50.291 53.5384 49.204 52.9703 48.5386 52.0159L34.6666 32.123Z"
      fill="#FFE133"
    />
  </g>
  <defs>
    <clipPath id="clip0_23275_2767">
      <rect width="80" height="87" fill="white" />
    </clipPath>
  </defs>
</svg>
